<svg xmlns="http://www.w3.org/2000/svg" width="24" height="24" viewBox="0 0 24 24" fill="none">
<path d="M9.5002 11.7004L11.0002 13.2004L14.9002 9.30039C15.0835 9.11706 15.3169 9.02539 15.6002 9.02539C15.8835 9.02539 16.1169 9.11706 16.3002 9.30039C16.4835 9.48372 16.5752 9.71706 16.5752 10.0004C16.5752 10.2837 16.4835 10.5171 16.3002 10.7004L11.7002 15.3004C11.5002 15.5004 11.2669 15.6004 11.0002 15.6004C10.7335 15.6004 10.5002 15.5004 10.3002 15.3004L8.10019 13.1004C7.91686 12.9171 7.8252 12.6837 7.8252 12.4004C7.8252 12.1171 7.91686 11.8837 8.10019 11.7004C8.28353 11.5171 8.51686 11.4254 8.8002 11.4254C9.08353 11.4254 9.31686 11.5171 9.5002 11.7004Z" fill="#2EBACD"/>
</svg>
